<svg xmlns="http://www.w3.org/2000/svg" id="Layer_1" data-name="Layer 1" viewBox="0 0 600 185.44"><defs><style>      .cls-1 {        fill: #fff;      }    </style></defs><path class="cls-1" d="M551.01,75.99v-22.91h22.17v22.91h-22.17ZM525.18,75.99l-22.26-19.98c-3.87-3.52-6.8-4.22-9.74-4.22-6.92,0-13.25,4.22-13.25,14.66v9.54h45.25ZM479.92,86.7v44.85h22.05v-44.85h-22.05ZM551.01,86.7v12.47l-13.9-12.47h-33.74l46.7,41.92c3.75,3.52,6.69,4.22,9.74,4.22,7.04,0,13.37-4.34,13.37-14.78v-31.36h-22.17ZM433.21,75.99l-10.65-15.41c-3.4-4.93-8.21-8.8-15.48-8.8s-12.43,4.22-15.72,8.8l-10.93,15.41h52.77ZM411.58,86.7l30.77,44.85h29.25l-30.99-44.85h-29.04ZM372.85,86.7l-31.8,44.85h28.74l31.72-44.85h-28.65ZM428.2,131.55l-21.8-31.78-22.47,31.78h44.27ZM332.01,75.99v-22.91h-24.28v22.91h24.28ZM307.73,86.7v44.85h24.28v-44.85h-24.28ZM267.7,75.99h26.66c-3.15-13.86-16.64-22.91-37.76-22.91h-65.34v20.41h67.57c3.84,0,6.85.9,8.87,2.5ZM269.54,86.7c-1.74,2.94-5.44,4.73-10.71,4.73h-67.57v40.12h24.16v-20.06h41.06c22.38,0,36.16-9.77,38.29-24.79h-25.23ZM68.53,75.62c5.36-7.58,14.19-12.53,24.19-12.53,8.11,0,15.46,3.26,20.82,8.55h23.24c-7.87-16.42-24.63-27.77-44.06-27.77-20.96,0-38.84,13.21-45.77,31.75h21.58ZM159.38,82.36h-38.9c1.2,3.23,1.87,6.72,1.87,10.36,0,16.36-13.27,29.63-29.63,29.63s-29.19-12.85-29.61-28.85l21.76-7.16h-40.57c-.27,2.09-.43,4.22-.43,6.38,0,26.98,21.87,48.85,48.85,48.85s48.85-21.87,48.85-48.85c0-1.49-.08-2.97-.21-4.43l18.02-5.93ZM160.19,86.7c.17,1.98.28,3.99.28,6.02,0,37.42-30.33,67.75-67.75,67.75S24.97,130.14,24.97,92.72,55.3,24.97,92.72,24.97c31.65,0,58.22,21.7,65.67,51.03h20.45C171.03,35.55,135.44,5,92.72,5,44.27,5,5,44.27,5,92.72s39.27,87.72,87.72,87.72,87.72-39.27,87.72-87.72c0-2.02-.07-4.03-.21-6.02h-20.04ZM316.46,158.67h13.54c2.28,0,3.18.67,3.18,2.36v5.31c0,.59.04,1.18.13,1.77h7.87c-.09-.75-.13-1.38-.13-2.52v-5.31c0-3.03-.86-4.44-2.79-5.5,2.06-1.38,2.75-3.38,2.75-5.5,0-2.01-.9-3.85-2.32-5.23-1.59-1.53-3.87-2.52-7.44-2.52h-20.63c-1.29,0-1.93.55-1.93,1.65v24.92h7.78v-9.43ZM316.46,152.61v-3.85c0-.35.22-.59.65-.59h13.11c.99,0,1.68.28,2.11.71.43.39.64.94.64,1.49,0,.51-.22.98-.56,1.38-.47.51-1.12.87-2.19.87h-13.75ZM348.94,141.53c-2.75,0-4.13,1.18-4.13,3.58v19.3c0,2.48,1.38,3.69,4.08,3.69h26.48v-6.8h-22.09c-.47,0-.69-.24-.69-.71v-3.22h22.65v-5.11h-22.65v-3.03c0-.43.22-.67.69-.67h22.09v-7.04h-26.43ZM403.87,147.27c.47,0,.77.2.95.79l4.17,14.66c1.16,4.01,3.83,5.94,8.21,5.94,5.24,0,7.82-2.4,8.51-5.9l3.87-19.97c.09-.55.13-.87.13-1.26h-8.12c0,.24,0,.63-.09,1.02l-3.31,18.16c-.13.63-.43.9-1.03.9-.52,0-.86-.2-1.03-.83l-4.34-14.46c-1.07-3.62-3.27-5.39-7.91-5.39s-7.01,1.77-8.21,5.58l-4.43,14.27c-.17.63-.52.83-1.03.83-.6,0-.95-.28-1.03-.9l-3.05-18.16c-.04-.35-.09-.75-.09-1.02h-8.21c0,.39.04.75.13,1.26l3.61,19.93c.6,3.38,3.14,5.94,8.42,5.94,4.47,0,7.18-1.85,8.42-5.94l4.51-14.66c.17-.59.47-.79.95-.79ZM454.49,145.85c-1.63-3.3-4.34-4.91-8.38-4.91s-6.79,1.61-8.42,4.91l-10.4,21.07c-.21.43-.34.79-.47,1.18h8.98c.04-.31.17-.63.3-.94l1.5-3.18h17.19l1.55,3.22c.13.28.26.55.34.9h8.77c-.13-.39-.26-.75-.47-1.18l-10.49-21.07ZM440.43,158.12l4.43-9.51c.3-.63.77-.83,1.29-.83.56,0,1.07.24,1.33.83l4.47,9.51h-11.52ZM476.27,158.67h13.54c2.28,0,3.18.67,3.18,2.36v5.31c0,.59.04,1.18.13,1.77h7.87c-.09-.75-.13-1.38-.13-2.52v-5.31c0-3.03-.86-4.44-2.79-5.5,2.06-1.38,2.75-3.38,2.75-5.5,0-2.01-.9-3.85-2.32-5.23-1.59-1.53-3.87-2.52-7.44-2.52h-20.63c-1.29,0-1.93.55-1.93,1.65v24.92h7.78v-9.43ZM476.27,152.61v-3.85c0-.35.22-.59.64-.59h13.11c.99,0,1.68.28,2.11.71.43.39.64.94.64,1.49,0,.51-.21.98-.56,1.38-.47.51-1.12.87-2.19.87h-13.75ZM506.56,141.53c-1.25,0-1.89.55-1.89,1.65v23.23c0,1.14.65,1.69,1.89,1.69h15.69c5.2,0,9.03-1.65,11.69-4.32,2.32-2.32,3.74-5.46,3.74-8.96,0-3.85-1.8-7.35-4.68-9.79-2.58-2.16-6.06-3.5-10.75-3.5h-15.69ZM522.25,148.56c2.62,0,4.26.67,5.5,1.73,1.33,1.14,2.15,2.79,2.15,4.56,0,1.61-.69,3.11-1.81,4.21-1.25,1.26-3.09,2.04-5.85,2.04h-9.24c-.39,0-.56-.16-.56-.55v-11.44c0-.39.17-.55.56-.55h9.24ZM571.8,141.53h-21.32c-3.87,0-6.06.94-7.61,2.4-1.55,1.45-2.49,3.42-2.49,5.54s.9,4.09,2.45,5.54c1.55,1.45,3.78,2.4,7.65,2.4h11.82c1.12,0,1.68.2,2.06.59.39.35.6.87.6,1.42,0,.47-.17.9-.47,1.22-.39.43-.99.67-2.19.67h-21.15v6.8h22.52c3.44,0,5.76-1.06,7.35-2.75,1.33-1.42,2.15-3.26,2.15-5.19,0-2.08-.95-4.05-2.49-5.5-1.55-1.45-3.74-2.4-7.01-2.4h-12.77c-.9,0-1.33-.12-1.68-.39-.43-.31-.73-.83-.73-1.42,0-.55.22-1.02.6-1.38.34-.31.86-.51,1.8-.51h20.89v-7.04ZM583.34,44.72v-4.38h.43c.49,0,.84.04,1.07.12s.44.22.64.44c.2.21.57.73,1.12,1.54l1.53,2.28h2.53l-1.28-2.05c-.51-.82-.91-1.38-1.21-1.7-.3-.32-.68-.61-1.13-.88.92-.13,1.61-.46,2.08-.97.46-.51.69-1.16.69-1.95,0-.62-.15-1.17-.46-1.65-.31-.48-.71-.82-1.22-1.01-.51-.19-1.32-.28-2.44-.28h-4.46v10.49h2.12ZM583.34,36.01h1.65c.86,0,1.37.01,1.55.04.34.06.61.19.8.41.19.22.28.5.28.86,0,.31-.07.58-.21.79s-.34.36-.59.44c-.25.09-.89.13-1.9.13h-1.57v-2.66ZM595,39.67c0-5.39-4.39-9.78-9.78-9.78s-9.78,4.39-9.78,9.78,4.39,9.78,9.78,9.78,9.78-4.39,9.78-9.78ZM594.35,39.67c0,5.03-4.09,9.13-9.13,9.13s-9.13-4.09-9.13-9.13,4.09-9.13,9.13-9.13,9.13,4.09,9.13,9.13Z"></path></svg>